<?xml version="1.0" encoding="us-ascii" standalone="no"?><svg xmlns="http://www.w3.org/2000/svg" xmlns:xlink="http://www.w3.org/1999/xlink" contentStyleType="text/css" height="1154px" preserveAspectRatio="none" style="width:1255px;height:1154px;background:#FFFFFF;" version="1.1" viewBox="0 0 1255 1154" width="1255px" zoomAndPan="magnify"><defs/><g><text fill="#000000" font-family="sans-serif" font-size="14" font-weight="bold" lengthAdjust="spacing" textLength="136" x="552.5" y="22.6738">Modelo de Dom&#237;nio</text><!--class Parcela--><g id="elem_Parcela"><rect codeLine="9" fill="#F1F1F1" height="64.9219" id="Parcela" rx="2.5" ry="2.5" style="stroke:#181818;stroke-width:0.5;" width="85" x="115" y="972.6406"/><text fill="#000000" font-family="sans-serif" font-size="14" lengthAdjust="spacing" textLength="48" x="133.5" y="990.3145">Parcela</text><line style="stroke:#181818;stroke-width:0.5;" x1="116" x2="199" y1="998.2813" y2="998.2813"/><text fill="#000000" font-family="sans-serif" font-size="14" lengthAdjust="spacing" textLength="73" x="121" y="1014.9551">designa&#231;&#227;o</text><text fill="#000000" font-family="sans-serif" font-size="14" lengthAdjust="spacing" textLength="29" x="121" y="1030.5957">&#225;rea</text></g><!--class Cultura--><g id="elem_Cultura"><rect codeLine="15" fill="#F1F1F1" height="80.5625" id="Cultura" rx="2.5" ry="2.5" style="stroke:#181818;stroke-width:0.5;" width="137" x="321" y="815.6406"/><text fill="#000000" font-family="sans-serif" font-size="14" lengthAdjust="spacing" textLength="46" x="366.5" y="833.3145">Cultura</text><line style="stroke:#181818;stroke-width:0.5;" x1="322" x2="457" y1="841.2813" y2="841.2813"/><text fill="#000000" font-family="sans-serif" font-size="14" lengthAdjust="spacing" textLength="125" x="327" y="857.9551">finalidadeDaCultura</text><text fill="#000000" font-family="sans-serif" font-size="14" lengthAdjust="spacing" textLength="87" x="327" y="873.5957">tipoDeCultura</text><text fill="#000000" font-family="sans-serif" font-size="14" lengthAdjust="spacing" textLength="35" x="327" y="889.2363">idade</text></g><!--class Planta--><g id="elem_Planta"><rect codeLine="21" fill="#F1F1F1" height="80.5625" id="Planta" rx="2.5" ry="2.5" style="stroke:#181818;stroke-width:0.5;" width="75" x="298" y="625.6406"/><text fill="#000000" font-family="sans-serif" font-size="14" lengthAdjust="spacing" textLength="40" x="315.5" y="643.3145">Planta</text><line style="stroke:#181818;stroke-width:0.5;" x1="299" x2="372" y1="651.2813" y2="651.2813"/><text fill="#000000" font-family="sans-serif" font-size="14" lengthAdjust="spacing" textLength="35" x="304" y="667.9551">nome</text><text fill="#000000" font-family="sans-serif" font-size="14" lengthAdjust="spacing" textLength="63" x="304" y="683.5957">variedade</text><text fill="#000000" font-family="sans-serif" font-size="14" lengthAdjust="spacing" textLength="49" x="304" y="699.2363">esp&#233;cie</text></g><!--class FatorProdu??o--><g id="elem_FatorProdu&#231;&#227;o"><rect codeLine="28" fill="#F1F1F1" height="80.5625" id="FatorProdu&#231;&#227;o" rx="2.5" ry="2.5" style="stroke:#181818;stroke-width:0.5;" width="148" x="856.5" y="294.6406"/><text fill="#000000" font-family="sans-serif" font-size="14" lengthAdjust="spacing" textLength="95" x="883" y="312.3145">FatorProdu&#231;&#227;o</text><line style="stroke:#181818;stroke-width:0.5;" x1="857.5" x2="1003.5" y1="320.2813" y2="320.2813"/><text fill="#000000" font-family="sans-serif" font-size="14" lengthAdjust="spacing" textLength="98" x="862.5" y="336.9551">nomeComercial</text><text fill="#000000" font-family="sans-serif" font-size="14" lengthAdjust="spacing" textLength="70" x="862.5" y="352.5957">formula&#231;&#227;o</text><text fill="#000000" font-family="sans-serif" font-size="14" lengthAdjust="spacing" textLength="136" x="862.5" y="368.2363">tipoDeFatorProdu&#231;&#227;o</text></g><!--class FichaT?cnina--><g id="elem_FichaT&#233;cnina"><rect codeLine="34" fill="#F1F1F1" height="33.6406" id="FichaT&#233;cnina" rx="2.5" ry="2.5" style="stroke:#181818;stroke-width:0.5;" width="92" x="884.5" y="184.6406"/><text fill="#000000" font-family="sans-serif" font-size="14" lengthAdjust="spacing" textLength="86" x="887.5" y="202.3145">FichaT&#233;cnina</text><line style="stroke:#181818;stroke-width:0.5;" x1="885.5" x2="975.5" y1="210.2813" y2="210.2813"/></g><!--class Componente--><g id="elem_Componente"><rect codeLine="36" fill="#F1F1F1" height="64.9219" id="Componente" rx="2.5" ry="2.5" style="stroke:#181818;stroke-width:0.5;" width="87" x="887" y="43.6406"/><text fill="#000000" font-family="sans-serif" font-size="14" lengthAdjust="spacing" textLength="81" x="890" y="61.3145">Componente</text><line style="stroke:#181818;stroke-width:0.5;" x1="888" x2="973" y1="69.2813" y2="69.2813"/><text fill="#000000" font-family="sans-serif" font-size="14" lengthAdjust="spacing" textLength="58" x="893" y="85.9551">elemento</text><text fill="#000000" font-family="sans-serif" font-size="14" lengthAdjust="spacing" textLength="71" x="893" y="101.5957">quantidade</text></g><!--class Colheita--><g id="elem_Colheita"><rect codeLine="41" fill="#F1F1F1" height="49.2813" id="Colheita" rx="2.5" ry="2.5" style="stroke:#181818;stroke-width:0.5;" width="83" x="609" y="451.6406"/><text fill="#000000" font-family="sans-serif" font-size="14" lengthAdjust="spacing" textLength="52" x="624.5" y="469.3145">Colheita</text><line style="stroke:#181818;stroke-width:0.5;" x1="610" x2="691" y1="477.2813" y2="477.2813"/><text fill="#000000" font-family="sans-serif" font-size="14" lengthAdjust="spacing" textLength="71" x="615" y="493.9551">quantidade</text></g><!--class ColheitaPrevista--><g id="elem_ColheitaPrevista"><rect codeLine="45" fill="#F1F1F1" height="64.9219" id="ColheitaPrevista" rx="2.5" ry="2.5" style="stroke:#181818;stroke-width:0.5;" width="113" x="430" y="530.6406"/><text fill="#000000" font-family="sans-serif" font-size="14" lengthAdjust="spacing" textLength="103" x="435" y="548.3145">ColheitaPrevista</text><line style="stroke:#181818;stroke-width:0.5;" x1="431" x2="542" y1="556.2813" y2="556.2813"/><text fill="#000000" font-family="sans-serif" font-size="14" lengthAdjust="spacing" textLength="101" x="436" y="572.9551">semanaPrevista</text><text fill="#000000" font-family="sans-serif" font-size="14" lengthAdjust="spacing" textLength="71" x="436" y="588.5957">quantidade</text></g><!--class SistemaDeRega--><g id="elem_SistemaDeRega"><rect codeLine="51" fill="#F1F1F1" height="33.6406" id="SistemaDeRega" rx="2.5" ry="2.5" style="stroke:#181818;stroke-width:0.5;" width="108" x="103.5" y="318.1406"/><text fill="#000000" font-family="sans-serif" font-size="14" lengthAdjust="spacing" textLength="102" x="106.5" y="335.8145">SistemaDeRega</text><line style="stroke:#181818;stroke-width:0.5;" x1="104.5" x2="210.5" y1="343.7813" y2="343.7813"/></g><!--class Opera??o--><g id="elem_Opera&#231;&#227;o"><rect codeLine="53" fill="#F1F1F1" height="49.2813" id="Opera&#231;&#227;o" rx="2.5" ry="2.5" style="stroke:#181818;stroke-width:0.5;" width="121" x="590" y="641.6406"/><text fill="#000000" font-family="sans-serif" font-size="14" lengthAdjust="spacing" textLength="63" x="619" y="659.3145">Opera&#231;&#227;o</text><line style="stroke:#181818;stroke-width:0.5;" x1="591" x2="710" y1="667.2813" y2="667.2813"/><text fill="#000000" font-family="sans-serif" font-size="14" lengthAdjust="spacing" textLength="109" x="596" y="683.9551">dataDeOpera&#231;&#227;o</text></g><!--class Fertiliza??o--><g id="elem_Fertiliza&#231;&#227;o"><rect codeLine="57" fill="#F1F1F1" height="49.2813" id="Fertiliza&#231;&#227;o" rx="2.5" ry="2.5" style="stroke:#181818;stroke-width:0.5;" width="137" x="862" y="451.6406"/><text fill="#000000" font-family="sans-serif" font-size="14" lengthAdjust="spacing" textLength="72" x="894.5" y="469.3145">Fertiliza&#231;&#227;o</text><line style="stroke:#181818;stroke-width:0.5;" x1="863" x2="998" y1="477.2813" y2="477.2813"/><text fill="#000000" font-family="sans-serif" font-size="14" lengthAdjust="spacing" textLength="125" x="868" y="493.9551">modoDeFertiliza&#231;&#227;o</text></g><!--class Rega--><g id="elem_Rega"><rect codeLine="61" fill="#F1F1F1" height="49.2813" id="Rega" rx="2.5" ry="2.5" style="stroke:#181818;stroke-width:0.5;" width="83" x="271" y="451.6406"/><text fill="#000000" font-family="sans-serif" font-size="14" lengthAdjust="spacing" textLength="34" x="295.5" y="469.3145">Rega</text><line style="stroke:#181818;stroke-width:0.5;" x1="272" x2="353" y1="477.2813" y2="477.2813"/><text fill="#000000" font-family="sans-serif" font-size="14" lengthAdjust="spacing" textLength="71" x="277" y="493.9551">quantidade</text></g><!--class Esta??oMetereol?gica--><g id="elem_Esta&#231;&#227;oMetereol&#243;gica"><rect codeLine="74" fill="#F1F1F1" height="33.6406" id="Esta&#231;&#227;oMetereol&#243;gica" rx="2.5" ry="2.5" style="stroke:#181818;stroke-width:0.5;" width="146" x="1095.5" y="839.1406"/><text fill="#000000" font-family="sans-serif" font-size="14" lengthAdjust="spacing" textLength="140" x="1098.5" y="856.8145">Esta&#231;&#227;oMetereol&#243;gica</text><line style="stroke:#181818;stroke-width:0.5;" x1="1096.5" x2="1240.5" y1="864.7813" y2="864.7813"/></g><!--class SensorMeteriol?gico--><g id="elem_SensorMeteriol&#243;gico"><rect codeLine="76" fill="#F1F1F1" height="49.2813" id="SensorMeteriol&#243;gico" rx="2.5" ry="2.5" style="stroke:#181818;stroke-width:0.5;" width="135" x="917" y="831.6406"/><text fill="#000000" font-family="sans-serif" font-size="14" lengthAdjust="spacing" textLength="129" x="920" y="849.3145">SensorMeteriol&#243;gico</text><line style="stroke:#181818;stroke-width:0.5;" x1="918" x2="1051" y1="857.2813" y2="857.2813"/><text fill="#000000" font-family="sans-serif" font-size="14" lengthAdjust="spacing" textLength="73" x="923" y="873.9551">designa&#231;&#227;o</text></g><!--class Previs?oMeteriol?gica--><g id="elem_Previs&#227;oMeteriol&#243;gica"><rect codeLine="80" fill="#F1F1F1" height="80.5625" id="Previs&#227;oMeteriol&#243;gica" rx="2.5" ry="2.5" style="stroke:#181818;stroke-width:0.5;" width="145" x="1103" y="625.6406"/><text fill="#000000" font-family="sans-serif" font-size="14" lengthAdjust="spacing" textLength="139" x="1106" y="643.3145">Previs&#227;oMeteriol&#243;gica</text><line style="stroke:#181818;stroke-width:0.5;" x1="1104" x2="1247" y1="651.2813" y2="651.2813"/><text fill="#000000" font-family="sans-serif" font-size="14" lengthAdjust="spacing" textLength="62" x="1109" y="667.9551">humidade</text><text fill="#000000" font-family="sans-serif" font-size="14" lengthAdjust="spacing" textLength="35" x="1109" y="683.5957">vento</text><text fill="#000000" font-family="sans-serif" font-size="14" lengthAdjust="spacing" textLength="77" x="1109" y="699.2363">temperatura</text></g><!--class CadernoDeCampo--><g id="elem_CadernoDeCampo"><rect codeLine="86" fill="#F1F1F1" height="33.6406" id="CadernoDeCampo" rx="2.5" ry="2.5" style="stroke:#181818;stroke-width:0.5;" width="124" x="724.5" y="839.1406"/><text fill="#000000" font-family="sans-serif" font-size="14" lengthAdjust="spacing" textLength="118" x="727.5" y="856.8145">CadernoDeCampo</text><line style="stroke:#181818;stroke-width:0.5;" x1="725.5" x2="847.5" y1="864.7813" y2="864.7813"/></g><!--class DadosMetereol?gicos--><g id="elem_DadosMetereol&#243;gicos"><rect codeLine="90" fill="#F1F1F1" height="49.2813" id="DadosMetereol&#243;gicos" rx="2.5" ry="2.5" style="stroke:#181818;stroke-width:0.5;" width="171" x="897" y="641.6406"/><text fill="#000000" font-family="sans-serif" font-size="14" lengthAdjust="spacing" textLength="137" x="914" y="659.3145">DadosMetereol&#243;gicos</text><line style="stroke:#181818;stroke-width:0.5;" x1="898" x2="1067" y1="667.2813" y2="667.2813"/><text fill="#000000" font-family="sans-serif" font-size="14" lengthAdjust="spacing" textLength="159" x="903" y="683.9551">informa&#231;&#227;oMetereol&#243;gica</text></g><!--class GestorAgr?cola--><g id="elem_GestorAgr&#237;cola"><rect codeLine="94" fill="#F1F1F1" height="33.6406" id="GestorAgr&#237;cola" rx="2.5" ry="2.5" style="stroke:#181818;stroke-width:0.5;" width="100" x="600.5" y="318.1406"/><text fill="#000000" font-family="sans-serif" font-size="14" lengthAdjust="spacing" textLength="94" x="603.5" y="335.8145">GestorAgr&#237;cola</text><line style="stroke:#181818;stroke-width:0.5;" x1="601.5" x2="699.5" y1="343.7813" y2="343.7813"/></g><!--class Edif?cio--><g id="elem_Edif&#237;cio"><rect codeLine="96" fill="#F1F1F1" height="49.2813" id="Edif&#237;cio" rx="2.5" ry="2.5" style="stroke:#181818;stroke-width:0.5;" width="51" x="32" y="736.6406"/><text fill="#000000" font-family="sans-serif" font-size="14" lengthAdjust="spacing" textLength="45" x="35" y="754.3145">Edif&#237;cio</text><line style="stroke:#181818;stroke-width:0.5;" x1="33" x2="82" y1="762.2813" y2="762.2813"/><text fill="#000000" font-family="sans-serif" font-size="14" lengthAdjust="spacing" textLength="29" x="38" y="778.9551">area</text></g><!--class Instala??oAgricula--><g id="elem_Instala&#231;&#227;oAgricula"><rect codeLine="100" fill="#F1F1F1" height="33.6406" id="Instala&#231;&#227;oAgricula" rx="2.5" ry="2.5" style="stroke:#181818;stroke-width:0.5;" width="121" x="29" y="1113.6406"/><text fill="#000000" font-family="sans-serif" font-size="14" lengthAdjust="spacing" textLength="115" x="32" y="1131.3145">Instala&#231;&#227;oAgricula</text><line style="stroke:#181818;stroke-width:0.5;" x1="30" x2="149" y1="1139.2813" y2="1139.2813"/></g><!--class TipoDeEdif?cio--><g id="elem_TipoDeEdif&#237;cio"><rect codeLine="103" fill="#F1F1F1" height="49.2813" id="TipoDeEdif&#237;cio" rx="2.5" ry="2.5" style="stroke:#181818;stroke-width:0.5;" width="97" x="7" y="451.6406"/><text fill="#000000" font-family="sans-serif" font-size="14" lengthAdjust="spacing" textLength="91" x="10" y="469.3145">TipoDeEdif&#237;cio</text><line style="stroke:#181818;stroke-width:0.5;" x1="8" x2="103" y1="477.2813" y2="477.2813"/><text fill="#000000" font-family="sans-serif" font-size="14" lengthAdjust="spacing" textLength="73" x="13" y="493.9551">designa&#231;&#227;o</text></g><!--link TipoDeEdif?cio to Edif?cio--><g id="link_TipoDeEdif&#237;cio_Edif&#237;cio"><path codeLine="108" d="M55.67,500.7806 C56.04,554.0506 56.95,682.9706 57.33,736.3706 " fill="none" id="TipoDeEdif&#237;cio-Edif&#237;cio" style="stroke:#181818;stroke-width:1.0;"/><polygon fill="#000000" points="61.5352,568.4022,64.4104,559.3367,58.5326,559.3781,61.5352,568.4022" style="stroke:#000000;stroke-width:1.0;"/><text fill="#000000" font-family="sans-serif" font-size="13" lengthAdjust="spacing" textLength="34" x="70.5" y="567.9092">define</text><text fill="#000000" font-family="sans-serif" font-size="13" lengthAdjust="spacing" textLength="7" x="47.8167" y="520.688">1</text><text fill="#000000" font-family="sans-serif" font-size="13" lengthAdjust="spacing" textLength="5" x="51.6458" y="726.0291">*</text></g><!--link Parcela to Instala??oAgricula--><g id="link_Parcela_Instala&#231;&#227;oAgricula"><path codeLine="110" d="M139.99,1037.9406 C126.69,1062.1006 108.94,1094.3206 98.42,1113.4406 " fill="none" id="Parcela-Instala&#231;&#227;oAgricula" style="stroke:#181818;stroke-width:1.0;"/><polygon fill="#000000" points="126.0884,1080.2823,133.0255,1073.7764,127.8765,1070.9414,126.0884,1080.2823" style="stroke:#000000;stroke-width:1.0;"/><text fill="#000000" font-family="sans-serif" font-size="13" lengthAdjust="spacing" textLength="57" x="137.5" y="1080.4092">comp&#245;em</text><text fill="#000000" font-family="sans-serif" font-size="13" lengthAdjust="spacing" textLength="5" x="131.1756" y="1057.3534">*</text><text fill="#000000" font-family="sans-serif" font-size="13" lengthAdjust="spacing" textLength="7" x="93.3509" y="1102.7452">1</text></g><!--link Edif?cio to Instala??oAgricula--><g id="link_Edif&#237;cio_Instala&#231;&#227;oAgricula"><path codeLine="111" d="M56.65,785.8506 C55.66,820.4006 54.72,886.5906 59.5,942.6406 C64.92,1006.2006 79.35,1080.8206 86.03,1113.2306 " fill="none" id="Edif&#237;cio-Instala&#231;&#227;oAgricula" style="stroke:#181818;stroke-width:1.0;"/><polygon fill="#000000" points="64.9469,939.8823,67.0656,930.6108,61.2113,931.1361,64.9469,939.8823" style="stroke:#000000;stroke-width:1.0;"/><text fill="#000000" font-family="sans-serif" font-size="13" lengthAdjust="spacing" textLength="57" x="73.5" y="939.4092">comp&#245;em</text><text fill="#000000" font-family="sans-serif" font-size="13" lengthAdjust="spacing" textLength="5" x="50.7916" y="805.7759">*</text><text fill="#000000" font-family="sans-serif" font-size="13" lengthAdjust="spacing" textLength="7" x="76.6341" y="1102.76">1</text></g><!--link Cultura to Parcela--><g id="link_Cultura_Parcela"><path codeLine="113" d="M327.02,896.7306 C286.89,922.1506 235.82,954.5106 200.27,977.0406 " fill="none" id="Cultura-Parcela" style="stroke:#181818;stroke-width:1.0;"/><polygon fill="#000000" points="274.2764,937.5784,283.4899,935.2199,280.344,930.2548,274.2764,937.5784" style="stroke:#000000;stroke-width:1.0;"/><text fill="#000000" font-family="sans-serif" font-size="13" lengthAdjust="spacing" textLength="64" x="287.5" y="939.4092">constituem</text><text fill="#000000" font-family="sans-serif" font-size="13" lengthAdjust="spacing" textLength="5" x="312.0699" y="915.86">*</text><text fill="#000000" font-family="sans-serif" font-size="13" lengthAdjust="spacing" textLength="7" x="207.9335" y="969.0456">1</text></g><!--link Planta to Cultura--><g id="link_Planta_Cultura"><path codeLine="114" d="M326.92,706.7206 C323.56,730.3206 322.38,760.4806 331.5,785.6406 C335.36,796.2806 341.63,806.4306 348.66,815.5306 " fill="none" id="Planta-Cultura" style="stroke:#181818;stroke-width:1.0;"/><polygon fill="#000000" points="337.4796,766.3054,338.5894,756.8598,332.8255,758.0115,337.4796,766.3054" style="stroke:#000000;stroke-width:1.0;"/><text fill="#000000" font-family="sans-serif" font-size="13" lengthAdjust="spacing" textLength="72" x="345.5" y="765.9092">presente em</text><text fill="#000000" font-family="sans-serif" font-size="13" lengthAdjust="spacing" textLength="7" x="318.0703" y="725.8484">1</text><text fill="#000000" font-family="sans-serif" font-size="13" lengthAdjust="spacing" textLength="7" x="333.7619" y="804.9042">1</text></g><!--link FatorProdu??o to Fertiliza??o--><g id="link_FatorProdu&#231;&#227;o_Fertiliza&#231;&#227;o"><path codeLine="115" d="M930.5,375.9706 C930.5,400.3606 930.5,430.7506 930.5,451.4106 " fill="none" id="FatorProdu&#231;&#227;o-Fertiliza&#231;&#227;o" style="stroke:#181818;stroke-width:1.0;"/><polygon fill="#000000" points="935.5,418.9023,938.4389,409.8573,932.5611,409.8573,935.5,418.9023" style="stroke:#000000;stroke-width:1.0;"/><text fill="#000000" font-family="sans-serif" font-size="13" lengthAdjust="spacing" textLength="59" x="944.5" y="418.4092">&#233; utilizado</text><text fill="#000000" font-family="sans-serif" font-size="13" lengthAdjust="spacing" textLength="7" x="922.9859" y="394.8348">1</text><text fill="#000000" font-family="sans-serif" font-size="13" lengthAdjust="spacing" textLength="5" x="924.8594" y="441.0794">*</text></g><!--link FichaT?cnina to FatorProdu??o--><g id="link_FichaT&#233;cnina_FatorProdu&#231;&#227;o"><path codeLine="118" d="M930.5,218.7606 C930.5,237.4906 930.5,269.0506 930.5,294.4306 " fill="none" id="FichaT&#233;cnina-FatorProdu&#231;&#227;o" style="stroke:#181818;stroke-width:1.0;"/><polygon fill="#000000" points="935.5,261.9023,938.4389,252.8573,932.5611,252.8573,935.5,261.9023" style="stroke:#000000;stroke-width:1.0;"/><text fill="#000000" font-family="sans-serif" font-size="13" lengthAdjust="spacing" textLength="64" x="944.5" y="261.4092">caracteriza</text><text fill="#000000" font-family="sans-serif" font-size="13" lengthAdjust="spacing" textLength="7" x="922.4281" y="238.0511">1</text><text fill="#000000" font-family="sans-serif" font-size="13" lengthAdjust="spacing" textLength="7" x="922.8766" y="283.7864">1</text></g><!--link Componente to FichaT?cnina--><g id="link_Componente_FichaT&#233;cnina"><path codeLine="119" d="M930.5,108.9406 C930.5,133.1006 930.5,165.3206 930.5,184.4406 " fill="none" id="Componente-FichaT&#233;cnina" style="stroke:#181818;stroke-width:1.0;"/><polygon fill="#000000" points="935.5,151.9023,938.4389,142.8573,932.5611,142.8573,935.5,151.9023" style="stroke:#000000;stroke-width:1.0;"/><text fill="#000000" font-family="sans-serif" font-size="13" lengthAdjust="spacing" textLength="64" x="944.5" y="151.4092">constituem</text><text fill="#000000" font-family="sans-serif" font-size="13" lengthAdjust="spacing" textLength="5" x="925.0234" y="128.3534">*</text><text fill="#000000" font-family="sans-serif" font-size="13" lengthAdjust="spacing" textLength="7" x="922.2531" y="173.7452">1</text></g><!--link ColheitaPrevista to Cultura--><g id="link_ColheitaPrevista_Cultura"><path codeLine="121" d="M479.06,595.8406 C468.47,639.3206 447.54,719.5806 422.5,785.6406 C418.76,795.5106 414.19,805.9006 409.65,815.5606 " fill="none" id="ColheitaPrevista-Cultura" style="stroke:#181818;stroke-width:1.0;"/><polygon fill="#000000" points="474.9939,671.1701,480.5209,663.4304,474.9161,661.6599,474.9939,671.1701" style="stroke:#000000;stroke-width:1.0;"/><text fill="#000000" font-family="sans-serif" font-size="13" lengthAdjust="spacing" textLength="81" x="485.5" y="670.9092">s&#227;o efetuadas</text><text fill="#000000" font-family="sans-serif" font-size="13" lengthAdjust="spacing" textLength="20" x="455.7355" y="615.2343">1..*</text><text fill="#000000" font-family="sans-serif" font-size="13" lengthAdjust="spacing" textLength="7" x="405.6158" y="804.9396">1</text></g><!--link GestorAgr?cola to Colheita--><g id="link_GestorAgr&#237;cola_Colheita"><path codeLine="122" d="M650.5,352.3606 C650.5,376.8506 650.5,423.4006 650.5,451.6206 " fill="none" id="GestorAgr&#237;cola-Colheita" style="stroke:#181818;stroke-width:1.0;"/><polygon fill="#000000" points="655.5,418.9023,658.4389,409.8573,652.5611,409.8573,655.5,418.9023" style="stroke:#000000;stroke-width:1.0;"/><text fill="#000000" font-family="sans-serif" font-size="13" lengthAdjust="spacing" textLength="41" x="664.5" y="418.4092">analisa</text><text fill="#000000" font-family="sans-serif" font-size="13" lengthAdjust="spacing" textLength="7" x="642.4281" y="371.6817">1</text><text fill="#000000" font-family="sans-serif" font-size="13" lengthAdjust="spacing" textLength="20" x="627.8125" y="440.9507">1..*</text></g><!--link GestorAgr?cola to ColheitaPrevista--><g id="link_GestorAgr&#237;cola_ColheitaPrevista"><path codeLine="123" d="M634.12,352.2706 C620.65,365.9106 601.41,386.2806 586.5,405.6406 C554.82,446.7606 523.44,498.0606 504.5,530.4706 " fill="none" id="GestorAgr&#237;cola-ColheitaPrevista" style="stroke:#181818;stroke-width:1.0;"/><polygon fill="#000000" points="588.5588,417.9458,596.2561,412.3599,591.5028,408.9023,588.5588,417.9458" style="stroke:#000000;stroke-width:1.0;"/><text fill="#000000" font-family="sans-serif" font-size="13" lengthAdjust="spacing" textLength="41" x="600.5" y="418.4092">analisa</text><text fill="#000000" font-family="sans-serif" font-size="13" lengthAdjust="spacing" textLength="7" x="621.0318" y="371.5642">1</text><text fill="#000000" font-family="sans-serif" font-size="13" lengthAdjust="spacing" textLength="20" x="486.15" y="520.1193">1..*</text></g><!--link SistemaDeRega to TipoDeEdif?cio--><g id="link_SistemaDeRega_TipoDeEdif&#237;cio"><path codeLine="125" d="M145.6,352.3606 C130.79,372.5406 104.97,407.7206 84.76,435.2606 " fill="none" id="SistemaDeRega-to-TipoDeEdif&#237;cio" style="stroke:#181818;stroke-width:1.0;"/><polygon fill="none" points="90.23,439.6406,72.76,451.6206,78.95,431.3606,90.23,439.6406" style="stroke:#181818;stroke-width:1.0;"/></g><!--link SistemaDeRega to Rega--><g id="link_SistemaDeRega_Rega"><path codeLine="126" d="M175.58,352.3606 C202.9,376.8506 254.81,423.4006 286.27,451.6206 " fill="none" id="SistemaDeRega-Rega" style="stroke:#181818;stroke-width:1.0;"/><polygon fill="#000000" points="258.2225,417.2405,253.4505,409.0137,249.5263,413.3898,258.2225,417.2405" style="stroke:#000000;stroke-width:1.0;"/><text fill="#000000" font-family="sans-serif" font-size="13" lengthAdjust="spacing" textLength="35" x="263.5" y="418.4092">efetua</text><text fill="#000000" font-family="sans-serif" font-size="13" lengthAdjust="spacing" textLength="7" x="173.0451" y="371.6817">1</text><text fill="#000000" font-family="sans-serif" font-size="13" lengthAdjust="spacing" textLength="20" x="256.5332" y="440.9507">1..*</text></g><!--link SistemaDeRega to Parcela--><g id="link_SistemaDeRega_Parcela"><path codeLine="129" d="M157.5,352.4006 C157.5,378.3606 157.5,430.7406 157.5,475.1406 C157.5,475.1406 157.5,475.1406 157.5,857.1406 C157.5,896.9506 157.5,942.8306 157.5,972.6006 " fill="none" id="SistemaDeRega-Parcela" style="stroke:#181818;stroke-width:1.0;"/><polygon fill="#000000" points="162.5,671.4023,165.4389,662.3573,159.5611,662.3573,162.5,671.4023" style="stroke:#000000;stroke-width:1.0;"/><text fill="#000000" font-family="sans-serif" font-size="13" lengthAdjust="spacing" textLength="90" x="171.5" y="670.9092">encontra-se em</text><text fill="#000000" font-family="sans-serif" font-size="13" lengthAdjust="spacing" textLength="7" x="149.4719" y="371.4252">1</text><text fill="#000000" font-family="sans-serif" font-size="13" lengthAdjust="spacing" textLength="20" x="135.3125" y="961.7856">1..*</text></g><!--link DadosMetereol?gicos to Esta??oMetereol?gica--><g id="link_DadosMetereol&#243;gicos_Esta&#231;&#227;oMetereol&#243;gica"><path codeLine="131" d="M1006.06,690.9506 C1044.47,729.7806 1119.62,805.7406 1152.48,838.9506 " fill="none" id="DadosMetereol&#243;gicos-Esta&#231;&#227;oMetereol&#243;gica" style="stroke:#181818;stroke-width:1.0;"/><polygon fill="#000000" points="1098.9835,757.8479,1103.2557,766.3449,1107.4342,762.211,1098.9835,757.8479" style="stroke:#000000;stroke-width:1.0;"/><text fill="#000000" font-family="sans-serif" font-size="13" lengthAdjust="spacing" textLength="34" x="1111.5" y="765.9092">utiliza</text><text fill="#000000" font-family="sans-serif" font-size="13" lengthAdjust="spacing" textLength="20" x="989.3653" y="710.5024">1..*</text><text fill="#000000" font-family="sans-serif" font-size="13" lengthAdjust="spacing" textLength="7" x="1138.526" y="828.2587">1</text></g><!--link Previs?oMeteriol?gica to Esta??oMetereol?gica--><g id="link_Previs&#227;oMeteriol&#243;gica_Esta&#231;&#227;oMetereol&#243;gica"><path codeLine="132" d="M1174.02,707.0106 C1172.49,747.9706 1170.19,809.7306 1169.11,838.8506 " fill="none" id="Previs&#227;oMeteriol&#243;gica-Esta&#231;&#227;oMetereol&#243;gica" style="stroke:#181818;stroke-width:1.0;"/><polygon fill="#000000" points="1177.6861,756.4058,1174.4126,765.3353,1180.2863,765.554,1177.6861,756.4058" style="stroke:#000000;stroke-width:1.0;"/><text fill="#000000" font-family="sans-serif" font-size="13" lengthAdjust="spacing" textLength="38" x="1186.5" y="765.9092">realiza</text><text fill="#000000" font-family="sans-serif" font-size="13" lengthAdjust="spacing" textLength="5" x="1168.4354" y="725.8807">*</text><text fill="#000000" font-family="sans-serif" font-size="13" lengthAdjust="spacing" textLength="7" x="1161.1166" y="828.4212">1</text></g><!--link GestorAgr?cola to CadernoDeCampo--><g id="link_GestorAgr&#237;cola_CadernoDeCampo"><path codeLine="135" d="M670.61,352.2006 C685.23,365.0506 704.19,384.3906 714.5,405.6406 C789.85,561.0206 789.03,778.6206 787.17,839.0306 " fill="none" id="GestorAgr&#237;cola-CadernoDeCampo" style="stroke:#181818;stroke-width:1.0;"/><polygon fill="#000000" points="777.6642,568.2649,778.4163,558.7841,772.7,560.1528,777.6642,568.2649" style="stroke:#000000;stroke-width:1.0;"/><text fill="#000000" font-family="sans-serif" font-size="13" lengthAdjust="spacing" textLength="106" x="785.5" y="567.9092">regista informa&#231;&#227;o</text><text fill="#000000" font-family="sans-serif" font-size="13" lengthAdjust="spacing" textLength="7" x="668.6968" y="371.4727">1</text><text fill="#000000" font-family="sans-serif" font-size="13" lengthAdjust="spacing" textLength="7" x="779.1618" y="828.3672">1</text></g><!--link Colheita to Opera??o--><g id="link_Colheita_Opera&#231;&#227;o"><path codeLine="137" d="M650.5,500.9506 C650.5,531.1806 650.5,583.9106 650.5,621.4606 " fill="none" id="Colheita-to-Opera&#231;&#227;o" style="stroke:#181818;stroke-width:1.0;"/><polygon fill="none" points="657.5,621.5206,650.5,641.5206,643.5,621.5206,657.5,621.5206" style="stroke:#181818;stroke-width:1.0;"/></g><!--link Fertiliza??o to Opera??o--><g id="link_Fertiliza&#231;&#227;o_Opera&#231;&#227;o"><path codeLine="138" d="M932.97,500.8406 C934.35,527.3606 932.21,569.9706 908.5,595.6406 C884.47,621.6606 797.31,641.3706 730.88,653.0306 " fill="none" id="Fertiliza&#231;&#227;o-to-Opera&#231;&#227;o" style="stroke:#181818;stroke-width:1.0;"/><polygon fill="none" points="731.91,659.9606,711.03,656.4006,729.58,646.1606,731.91,659.9606" style="stroke:#181818;stroke-width:1.0;"/></g><!--link Rega to Opera??o--><g id="link_Rega_Opera&#231;&#227;o"><path codeLine="139" d="M325.81,500.7406 C342.45,528.0106 373.56,572.1106 412.5,595.6406 C465.48,627.6506 489.25,607.7506 548.5,625.6406 C557.17,628.2606 566.15,631.2706 575.02,634.4406 " fill="none" id="Rega-to-Opera&#231;&#227;o" style="stroke:#181818;stroke-width:1.0;"/><polygon fill="none" points="577.81,628.0106,594.12,641.5406,572.93,641.1306,577.81,628.0106" style="stroke:#181818;stroke-width:1.0;"/></g><!--link Opera??o to CadernoDeCampo--><g id="link_Opera&#231;&#227;o_CadernoDeCampo"><path codeLine="140" d="M646.31,691.0506 C643.15,716.5906 642.07,757.2306 660.5,785.6406 C677.15,811.3106 706.72,828.3306 733.03,839.1006 " fill="none" id="Opera&#231;&#227;o-CadernoDeCampo" style="stroke:#181818;stroke-width:1.0;"/><polygon fill="#000000" points="668.0271,765.7167,665.9914,756.4266,660.9196,759.3974,668.0271,765.7167" style="stroke:#000000;stroke-width:1.0;"/><text fill="#000000" font-family="sans-serif" font-size="13" lengthAdjust="spacing" textLength="85" x="674.5" y="765.9092">s&#227;o registadas</text><text fill="#000000" font-family="sans-serif" font-size="13" lengthAdjust="spacing" textLength="5" x="639.6793" y="710.6268">*</text><text fill="#000000" font-family="sans-serif" font-size="13" lengthAdjust="spacing" textLength="7" x="709.2951" y="829.9371">1</text></g><!--link Opera??o to Cultura--><g id="link_Opera&#231;&#227;o_Cultura"><path codeLine="141" d="M597.04,690.7206 C571.69,702.9206 541.55,718.9606 516.5,736.6406 C514.11,738.3306 467.76,781.6906 431.74,815.4706 " fill="none" id="Opera&#231;&#227;o-Cultura" style="stroke:#181818;stroke-width:1.0;"/><polygon fill="#000000" points="517.509,764.4143,526.4992,761.3115,522.9584,756.6198,517.509,764.4143" style="stroke:#000000;stroke-width:1.0;"/><text fill="#000000" font-family="sans-serif" font-size="13" lengthAdjust="spacing" textLength="106" x="530.5" y="765.9092">s&#227;o realizadas em</text><text fill="#000000" font-family="sans-serif" font-size="13" lengthAdjust="spacing" textLength="5" x="577.7003" y="710.6126">*</text><text fill="#000000" font-family="sans-serif" font-size="13" lengthAdjust="spacing" textLength="7" x="431.6406" y="804.8335">1</text></g><!--link DadosMetereol?gicos to SensorMeteriol?gico--><g id="link_DadosMetereol&#243;gicos_SensorMeteriol&#243;gico"><path codeLine="143" d="M982.66,690.7506 C982.83,714.6606 983.12,752.7206 983.5,785.6406 C983.67,800.8406 983.92,817.9206 984.12,831.3406 " fill="none" id="DadosMetereol&#243;gicos-SensorMeteriol&#243;gico" style="stroke:#181818;stroke-width:1.0;"/><polygon fill="#000000" points="988.5519,766.4021,991.3968,757.327,985.5192,757.388,988.5519,766.4021" style="stroke:#000000;stroke-width:1.0;"/><text fill="#000000" font-family="sans-serif" font-size="13" lengthAdjust="spacing" textLength="44" x="997.5" y="765.9092">derivam</text><text fill="#000000" font-family="sans-serif" font-size="13" lengthAdjust="spacing" textLength="5" x="977.0604" y="710.6503">*</text><text fill="#000000" font-family="sans-serif" font-size="13" lengthAdjust="spacing" textLength="7" x="976.1258" y="820.9915">1</text></g><!--link DadosMetereol?gicos to CadernoDeCampo--><g id="link_DadosMetereol&#243;gicos_CadernoDeCampo"><path codeLine="144" d="M938.14,690.7606 C917.54,702.9106 893.47,718.9006 874.5,736.6406 C840.62,768.3206 810.66,814.4406 796.01,838.7406 " fill="none" id="DadosMetereol&#243;gicos-CadernoDeCampo" style="stroke:#181818;stroke-width:1.0;"/><polygon fill="#000000" points="876.0365,765.0084,884.4217,760.5208,880.1825,756.4491,876.0365,765.0084" style="stroke:#000000;stroke-width:1.0;"/><text fill="#000000" font-family="sans-serif" font-size="13" lengthAdjust="spacing" textLength="85" x="888.5" y="765.9092">s&#227;o registados</text><text fill="#000000" font-family="sans-serif" font-size="13" lengthAdjust="spacing" textLength="5" x="921.1321" y="710.6628">*</text><text fill="#000000" font-family="sans-serif" font-size="13" lengthAdjust="spacing" textLength="7" x="791.0759" y="828.2734">1</text></g><!--SRC=[bLN1Rjim3BthAmHV31HeWLoBeS3GRCCEnOgrFw1PZ4DCbZ993h1c-vXXXw67dePzWNzibAnOjfjatI50Gl8zFb8aKxhFg3V2YeOhrE2_Re0RwzU6bGfMddl3BTPhpoLQg3mQpTOeWLTeAmNzzmOeNZh6F7e5dDyO2SfmyYnDqprfD8onIWdd-Asm5IYnOn8SrbfqlxgVXdK_B0ZsVOYwRfLlBKMjK0k5KaXOYcIa91kpXFslw0pGnA-4zWJKfW6s5HOX-i5jkiSAWUN8jy8RUskDRAE67d9D7rkXK6nbRDEgfAzFEKECgB1QYtjAe4dkRZ0JsSPeq1vs31GqzCsmBoq9d8c-DceD66IVyjvQsA8BKGuQeOVVCr12tP6BmfRm4UgHfWyRi28LB8KdVxQC2WBhKU73Fh8nCjG_iURec66iekpx5Uoib2J4ugSM8sefefMmvRuwxQrHGXgxozRmZ8bXHtJGP3wIYqPYbL8DAjvGAsAA6_1WmQZkTutLgFGxqCxOwCNaDRCvp6CKUxidmu6ChTkcJxoDhncKKVlY9EO78xyDygy5wTwDPcv9PRg9FkDs37KOjaFYC_8TE1g-rxNjdYhgLgxgZSGLsP3oYBH4lUEzfeQa0IOSLcrOky5z7vzeX9utWiqYYaN1pyzvSLOC9dv9Equh2loAiRJPv8zXY-AG049Kj1NT7sW8axd_0yJIvcTCoXp328w-ZO7zATZBNXG9Hs4R2owi9OznixNETKxddN3T8szxYpGyI66JpS-fPfH16LtOAepIWo1WlWovYWdLl1OsFmB5ukBYx7bbOMGvhC2tGWf7mDdS3183Uiz9E17Eh1Cl1En5J81iSd48zErgFcJJa0brF2B4rsidkd9q0d9Zn-SYb0jr2_mLAqVc73mLTCbhsYnYFYuY3nBeAZ2ASvU6X1rQtSaZ7Ba_H9PcXdGUEIl52qXejnD9-K-MKUi8IUT5jLGGYbZ8iGSkPdShvgpZCuyFr7WO-qSU_O7CDcRkpeCnCkQlkO3dKk9W9prXiad6OU1q5LBN0kB4CmxmGtyHySXPtCRkdOQVLct2FhA_]--></g></svg>